<svg width="24" height="25" viewBox="0 0 24 25" fill="none" xmlns="http://www.w3.org/2000/svg">
<path d="M24 23.5C24 23.7652 23.9157 24.0196 23.7657 24.2071C23.6157 24.3946 23.4122 24.5 23.2 24.5H0.8C0.587827 24.5 0.384344 24.3946 0.234315 24.2071C0.0842854 24.0196 0 23.7652 0 23.5C0 23.2348 0.0842854 22.9805 0.234315 22.7929C0.384344 22.6054 0.587827 22.5001 0.8 22.5001H23.2C23.4122 22.5001 23.6157 22.6054 23.7657 22.7929C23.9157 22.9805 24 23.2348 24 23.5ZM0.83 9.77289C0.782418 9.56318 0.790958 9.33978 0.854321 9.1367C0.917683 8.93362 1.0324 8.76198 1.181 8.64791L11.581 0.648124C11.707 0.551274 11.8521 0.5 12 0.5C12.1479 0.5 12.293 0.551274 12.419 0.648124L22.819 8.64791C22.9676 8.76184 23.0824 8.93336 23.1459 9.13636C23.2094 9.33935 23.2181 9.56272 23.1706 9.77245C23.1232 9.98218 23.0222 10.1668 22.8831 10.2982C22.744 10.4296 22.5744 10.5006 22.4 10.5004H20V18.5002H21.6C21.8122 18.5002 22.0157 18.6055 22.1657 18.793C22.3157 18.9806 22.4 19.2349 22.4 19.5001C22.4 19.7653 22.3157 20.0197 22.1657 20.2072C22.0157 20.3948 21.8122 20.5001 21.6 20.5001H2.4C2.18783 20.5001 1.98434 20.3948 1.83431 20.2072C1.68429 20.0197 1.6 19.7653 1.6 19.5001C1.6 19.2349 1.68429 18.9806 1.83431 18.793C1.98434 18.6055 2.18783 18.5002 2.4 18.5002H4V10.5004H1.6C1.42579 10.5004 1.25632 10.4294 1.11734 10.2981C0.978363 10.1668 0.877473 9.9824 0.83 9.77289ZM13.6 17.5002C13.6 17.7654 13.6843 18.0197 13.8343 18.2073C13.9843 18.3948 14.1878 18.5002 14.4 18.5002C14.6122 18.5002 14.8157 18.3948 14.9657 18.2073C15.1157 18.0197 15.2 17.7654 15.2 17.5002V11.5003C15.2 11.2351 15.1157 10.9808 14.9657 10.7933C14.8157 10.6057 14.6122 10.5004 14.4 10.5004C14.1878 10.5004 13.9843 10.6057 13.8343 10.7933C13.6843 10.9808 13.6 11.2351 13.6 11.5003V17.5002ZM8.8 17.5002C8.8 17.7654 8.88429 18.0197 9.03432 18.2073C9.18434 18.3948 9.38783 18.5002 9.6 18.5002C9.81217 18.5002 10.0157 18.3948 10.1657 18.2073C10.3157 18.0197 10.4 17.7654 10.4 17.5002V11.5003C10.4 11.2351 10.3157 10.9808 10.1657 10.7933C10.0157 10.6057 9.81217 10.5004 9.6 10.5004C9.38783 10.5004 9.18434 10.6057 9.03432 10.7933C8.88429 10.9808 8.8 11.2351 8.8 11.5003V17.5002Z" fill="black"/>
</svg>
