<svg width="22" height="19" viewBox="0 0 22 19" fill="none" xmlns="http://www.w3.org/2000/svg">
<path d="M18.5 2.375H16.1019L14.9375 0.625626C14.8346 0.471384 14.6952 0.344969 14.5316 0.257628C14.368 0.170286 14.1854 0.124726 14 0.125001H8C7.81458 0.124726 7.63197 0.170286 7.46841 0.257628C7.30484 0.344969 7.16541 0.471384 7.0625 0.625626L5.89719 2.375H3.5C2.80381 2.375 2.13613 2.65156 1.64384 3.14385C1.15156 3.63613 0.875 4.30381 0.875 5V15.5C0.875 16.1962 1.15156 16.8639 1.64384 17.3562C2.13613 17.8484 2.80381 18.125 3.5 18.125H18.5C18.8447 18.125 19.1861 18.0571 19.5045 17.9252C19.823 17.7933 20.1124 17.5999 20.3562 17.3562C20.5999 17.1124 20.7933 16.823 20.9252 16.5045C21.0571 16.1861 21.125 15.8447 21.125 15.5V5C21.125 4.65528 21.0571 4.31394 20.9252 3.99546C20.7933 3.67698 20.5999 3.3876 20.3562 3.14385C20.1124 2.90009 19.823 2.70674 19.5045 2.57482C19.1861 2.4429 18.8447 2.375 18.5 2.375ZM18.875 15.5C18.875 15.5995 18.8355 15.6948 18.7652 15.7652C18.6948 15.8355 18.5995 15.875 18.5 15.875H3.5C3.40054 15.875 3.30516 15.8355 3.23484 15.7652C3.16451 15.6948 3.125 15.5995 3.125 15.5V5C3.125 4.90055 3.16451 4.80516 3.23484 4.73484C3.30516 4.66451 3.40054 4.625 3.5 4.625H6.5C6.68542 4.62528 6.86803 4.57972 7.03159 4.49237C7.19516 4.40503 7.33459 4.27862 7.4375 4.12438L8.60187 2.375H13.3972L14.5625 4.12438C14.6654 4.27862 14.8048 4.40503 14.9684 4.49237C15.132 4.57972 15.3146 4.62528 15.5 4.625H18.5C18.5995 4.625 18.6948 4.66451 18.7652 4.73484C18.8355 4.80516 18.875 4.90055 18.875 5V15.5ZM11 5.375C10.11 5.375 9.23995 5.63892 8.49993 6.13339C7.75991 6.62785 7.18314 7.33066 6.84254 8.15293C6.50195 8.97519 6.41283 9.87999 6.58647 10.7529C6.7601 11.6258 7.18868 12.4276 7.81802 13.057C8.44736 13.6863 9.24918 14.1149 10.1221 14.2885C10.995 14.4622 11.8998 14.3731 12.7221 14.0325C13.5443 13.6919 14.2471 13.1151 14.7416 12.3751C15.2361 11.635 15.5 10.765 15.5 9.875C15.4988 8.68191 15.0243 7.53804 14.1806 6.69439C13.337 5.85075 12.1931 5.37624 11 5.375ZM11 12.125C10.555 12.125 10.12 11.993 9.74997 11.7458C9.37996 11.4986 9.09157 11.1472 8.92127 10.736C8.75097 10.3249 8.70642 9.87251 8.79323 9.43605C8.88005 8.99959 9.09434 8.59868 9.40901 8.28401C9.72368 7.96934 10.1246 7.75505 10.561 7.66823C10.9975 7.58142 11.4499 7.62598 11.861 7.79627C12.2722 7.96657 12.6236 8.25496 12.8708 8.62497C13.118 8.99498 13.25 9.42999 13.25 9.875C13.25 10.4717 13.0129 11.044 12.591 11.466C12.169 11.8879 11.5967 12.125 11 12.125Z" fill="white"/>
</svg>
