<svg width="24" height="25" viewBox="0 0 24 25" fill="none" xmlns="http://www.w3.org/2000/svg">
<path d="M3.75063 0.5C2.7559 0.5 1.80191 1.02678 1.09853 1.96447C0.395154 2.90215 0 4.17392 0 5.5V6.5H24V5.5C24 4.17392 23.6048 2.90215 22.9015 1.96447C22.1981 1.02678 21.2441 0.5 20.2494 0.5H3.75063ZM0 19.5V8.5H24V19.5C24 20.8261 23.6048 22.0979 22.9015 23.0355C22.1981 23.9732 21.2441 24.5 20.2494 24.5H3.75163C2.7569 24.5 1.80291 23.9732 1.09953 23.0355C0.396154 22.0979 0.00100033 20.8261 0.00100033 19.5M16.2487 15.8333C16.0498 15.8333 15.859 15.9387 15.7183 16.1262C15.5776 16.3138 15.4986 16.5681 15.4986 16.8333C15.4986 17.0986 15.5776 17.3529 15.7183 17.5404C15.859 17.728 16.0498 17.8333 16.2487 17.8333H19.7493C19.9482 17.8333 20.139 17.728 20.2797 17.5404C20.4204 17.3529 20.4994 17.0986 20.4994 16.8333C20.4994 16.5681 20.4204 16.3138 20.2797 16.1262C20.139 15.9387 19.9482 15.8333 19.7493 15.8333H16.2487Z" fill="black"/>
</svg>
