<svg width="48" height="49" viewBox="0 0 48 49" fill="none" xmlns="http://www.w3.org/2000/svg">
<path d="M7.50125 0.90625C5.5118 0.90625 3.60382 1.95763 2.19707 3.82909C0.790308 5.70055 0 8.2388 0 10.8855V12.8813H48V10.8855C48 8.2388 47.2097 5.70055 45.8029 3.82909C44.3962 1.95763 42.4882 0.90625 40.4987 0.90625H7.50125ZM0 38.8272V16.873H48V38.8272C48 41.4739 47.2097 44.0121 45.8029 45.8836C44.3962 47.755 42.4882 48.8064 40.4987 48.8064H7.50325C5.5138 48.8064 3.60582 47.755 2.19907 45.8836C0.792309 44.0121 0.00200067 41.4739 0.00200067 38.8272M32.4974 31.5091C32.0995 31.5091 31.7179 31.7194 31.4366 32.0937C31.1552 32.468 30.9972 32.9756 30.9972 33.505C30.9972 34.0343 31.1552 34.542 31.4366 34.9163C31.7179 35.2905 32.0995 35.5008 32.4974 35.5008H39.4986C39.8965 35.5008 40.2781 35.2905 40.5594 34.9163C40.8408 34.542 40.9988 34.0343 40.9988 33.505C40.9988 32.9756 40.8408 32.468 40.5594 32.0937C40.2781 31.7194 39.8965 31.5091 39.4986 31.5091H32.4974Z" fill="#EB8F05"/>
</svg>
