<svg width="283" height="61" viewBox="0 0 283 61" fill="none" xmlns="http://www.w3.org/2000/svg">
<path d="M26.512 25.104C26.16 22.224 25.168 20.016 23.536 18.48C21.904 16.912 19.776 16.112 17.152 16.08C15.488 16.08 13.952 16.448 12.544 17.184C11.136 17.92 9.92 18.96 8.896 20.304C7.872 21.616 7.072 23.184 6.496 25.008C5.952 26.8 5.68 28.768 5.68 30.912C5.68 33.824 6.192 36.416 7.216 38.688C8.24 40.928 9.648 42.672 11.44 43.92C13.264 45.168 15.328 45.792 17.632 45.792C19.68 45.792 21.696 45.312 23.68 44.352C25.696 43.36 27.36 41.968 28.672 40.176L30.256 41.52C28.816 43.504 27.28 45.024 25.648 46.08C24.016 47.136 22.384 47.84 20.752 48.192C19.152 48.576 17.696 48.768 16.384 48.768C13.984 48.768 11.776 48.336 9.76 47.472C7.744 46.608 6 45.408 4.528 43.872C3.088 42.304 1.968 40.496 1.168 38.448C0.4 36.368 0.0160002 34.128 0.0160002 31.728C0.0160002 29.488 0.368 27.296 1.072 25.152C1.776 23.008 2.816 21.072 4.192 19.344C5.568 17.584 7.296 16.192 9.376 15.168C11.488 14.144 13.936 13.632 16.72 13.632C18.352 13.632 19.936 13.856 21.472 14.304C23.04 14.752 24.544 15.44 25.984 16.368L25.744 13.968H28.72V25.104H26.512ZM47.599 48C47.535 47.488 47.487 47.04 47.455 46.656C47.423 46.272 47.375 45.872 47.311 45.456C46.223 46.544 45.055 47.376 43.807 47.952C42.559 48.496 41.263 48.768 39.919 48.768C37.615 48.768 35.871 48.208 34.687 47.088C33.535 45.936 32.959 44.512 32.959 42.816C32.959 41.344 33.391 40.064 34.255 38.976C35.119 37.888 36.255 37.008 37.663 36.336C39.071 35.632 40.607 35.12 42.271 34.8C43.935 34.448 45.567 34.272 47.167 34.272V31.44C47.167 30.416 47.071 29.472 46.879 28.608C46.687 27.712 46.287 26.992 45.679 26.448C45.103 25.872 44.191 25.584 42.943 25.584C42.111 25.552 41.279 25.712 40.447 26.064C39.615 26.384 38.975 26.928 38.527 27.696C38.783 27.952 38.943 28.256 39.007 28.608C39.103 28.928 39.151 29.232 39.151 29.52C39.151 29.968 38.959 30.48 38.575 31.056C38.191 31.6 37.535 31.856 36.607 31.824C35.839 31.824 35.247 31.568 34.831 31.056C34.447 30.512 34.255 29.888 34.255 29.184C34.255 28.032 34.671 27.008 35.503 26.112C36.367 25.216 37.535 24.512 39.007 24C40.479 23.488 42.127 23.232 43.951 23.232C46.703 23.232 48.751 23.952 50.095 25.392C51.471 26.832 52.159 29.104 52.159 32.208C52.159 33.36 52.159 34.464 52.159 35.52C52.159 36.576 52.143 37.632 52.111 38.688C52.111 39.744 52.111 40.864 52.111 42.048C52.111 42.528 52.095 43.072 52.063 43.68C52.031 44.288 51.983 44.928 51.919 45.6C52.463 45.568 53.023 45.536 53.599 45.504C54.175 45.472 54.719 45.456 55.231 45.456V48H47.599ZM47.167 36.48C46.143 36.544 45.087 36.688 43.999 36.912C42.943 37.136 41.983 37.472 41.119 37.92C40.255 38.368 39.551 38.944 39.007 39.648C38.495 40.352 38.239 41.2 38.239 42.192C38.303 43.28 38.655 44.08 39.295 44.592C39.967 45.104 40.751 45.36 41.647 45.36C42.767 45.36 43.759 45.152 44.623 44.736C45.487 44.288 46.335 43.68 47.167 42.912C47.135 42.56 47.119 42.208 47.119 41.856C47.119 41.472 47.119 41.072 47.119 40.656C47.119 40.368 47.119 39.84 47.119 39.072C47.151 38.272 47.167 37.408 47.167 36.48ZM58.3296 45.984C59.2896 45.984 59.9616 45.76 60.3456 45.312C60.7296 44.864 60.9536 44.24 61.0176 43.44C61.1136 42.64 61.1616 41.712 61.1616 40.656V30.672C61.1616 30.16 61.1616 29.616 61.1616 29.04C61.1936 28.432 61.2576 27.84 61.3536 27.264C60.8096 27.296 60.2336 27.328 59.6256 27.36C59.0176 27.36 58.4576 27.376 57.9456 27.408V24.864H59.5776C60.9216 24.864 61.9456 24.72 62.6496 24.432C63.3536 24.144 63.8656 23.84 64.1856 23.52H65.9136C65.9776 23.968 66.0256 24.592 66.0576 25.392C66.0896 26.192 66.1216 27.088 66.1536 28.08C66.7616 27.184 67.4656 26.384 68.2656 25.68C69.0656 24.944 69.9296 24.352 70.8576 23.904C71.8176 23.456 72.8096 23.232 73.8336 23.232C74.8256 23.232 75.6736 23.504 76.3776 24.048C77.1136 24.56 77.4816 25.408 77.4816 26.592C77.4816 26.912 77.3856 27.28 77.1936 27.696C77.0336 28.112 76.7456 28.48 76.3296 28.8C75.9456 29.088 75.4176 29.232 74.7456 29.232C74.0736 29.2 73.4816 28.944 72.9696 28.464C72.4896 27.984 72.2656 27.328 72.2976 26.496C71.5296 26.496 70.7616 26.736 69.9936 27.216C69.2256 27.664 68.5056 28.272 67.8336 29.04C67.1936 29.808 66.6496 30.64 66.2016 31.536V42.048C66.2016 42.624 66.1856 43.216 66.1536 43.824C66.1536 44.4 66.1056 44.992 66.0096 45.6C66.5216 45.568 67.0496 45.552 67.5936 45.552C68.1376 45.52 68.6336 45.488 69.0816 45.456V48H58.3296V45.984ZM89.2945 48.768C88.4945 48.768 87.6945 48.656 86.8945 48.432C86.0945 48.24 85.3425 47.84 84.6385 47.232C83.9665 46.592 83.4385 45.68 83.0545 44.496C82.6705 43.312 82.4785 41.744 82.4785 39.792L82.5745 26.688H79.0225V24C79.8865 23.968 80.7665 23.648 81.6625 23.04C82.5585 22.432 83.3425 21.616 84.0145 20.592C84.6865 19.568 85.1505 18.464 85.4065 17.28H87.6625V24H95.0545V26.496L87.6625 26.592L87.5665 39.408C87.5665 40.624 87.6625 41.696 87.8545 42.624C88.0785 43.52 88.4305 44.224 88.9105 44.736C89.4225 45.216 90.1105 45.456 90.9745 45.456C91.7105 45.456 92.4625 45.232 93.2305 44.784C94.0305 44.336 94.7825 43.6 95.4865 42.576L97.1185 44.016C96.3505 45.136 95.5825 46.016 94.8145 46.656C94.0465 47.296 93.3105 47.76 92.6065 48.048C91.9025 48.368 91.2625 48.56 90.6865 48.624C90.1105 48.72 89.6465 48.768 89.2945 48.768ZM103.381 61.008C102.325 61.008 101.413 60.72 100.645 60.144C99.9086 59.6 99.5406 58.8 99.5406 57.744C99.5406 57.072 99.7486 56.464 100.165 55.92C100.613 55.376 101.189 55.104 101.893 55.104C102.661 55.072 103.205 55.312 103.525 55.824C103.877 56.336 104.053 56.864 104.053 57.408C104.053 57.504 104.053 57.6 104.053 57.696C104.053 57.792 104.037 57.904 104.005 58.032C104.101 58.096 104.245 58.112 104.437 58.08C104.789 58.048 105.173 57.856 105.589 57.504C106.005 57.152 106.389 56.656 106.741 56.016C107.125 55.312 107.557 54.336 108.037 53.088C108.517 51.84 109.045 50.4 109.621 48.768L102.085 33.024C101.221 31.232 100.613 29.84 100.261 28.848C99.9406 27.824 99.7326 27.024 99.6366 26.448L97.3326 26.544V24H107.941V25.968H107.845C106.533 26.096 105.813 26.592 105.685 27.456C105.589 28.32 105.893 29.504 106.597 31.008L111.877 42.624C112.485 40.992 113.093 39.216 113.701 37.296C114.341 35.376 114.997 33.408 115.669 31.392C115.893 30.784 116.117 30.144 116.341 29.472C116.597 28.768 116.853 28.128 117.109 27.552C117.397 26.976 117.669 26.576 117.925 26.352L114.805 26.544V24H122.677V25.968C121.557 26.352 120.677 27.056 120.037 28.08C119.429 29.104 118.837 30.4 118.261 31.968L112.261 48.864C111.333 51.52 110.469 53.744 109.669 55.536C108.869 57.36 107.973 58.72 106.981 59.616C106.021 60.544 104.821 61.008 103.381 61.008Z" fill="#EFAB45"/>
<path d="M151.387 25.104C151.035 22.224 150.043 20.016 148.411 18.48C146.779 16.912 144.651 16.112 142.027 16.08C140.363 16.08 138.827 16.448 137.419 17.184C136.011 17.92 134.795 18.96 133.771 20.304C132.747 21.616 131.947 23.184 131.371 25.008C130.827 26.8 130.555 28.768 130.555 30.912C130.555 33.824 131.067 36.416 132.091 38.688C133.115 40.928 134.523 42.672 136.315 43.92C138.139 45.168 140.203 45.792 142.507 45.792C144.555 45.792 146.571 45.312 148.555 44.352C150.571 43.36 152.235 41.968 153.547 40.176L155.131 41.52C153.691 43.504 152.155 45.024 150.523 46.08C148.891 47.136 147.259 47.84 145.627 48.192C144.027 48.576 142.571 48.768 141.259 48.768C138.859 48.768 136.651 48.336 134.635 47.472C132.619 46.608 130.875 45.408 129.403 43.872C127.963 42.304 126.843 40.496 126.043 38.448C125.275 36.368 124.891 34.128 124.891 31.728C124.891 29.488 125.243 27.296 125.947 25.152C126.651 23.008 127.691 21.072 129.067 19.344C130.443 17.584 132.171 16.192 134.251 15.168C136.363 14.144 138.811 13.632 141.595 13.632C143.227 13.632 144.811 13.856 146.347 14.304C147.915 14.752 149.419 15.44 150.859 16.368L150.619 13.968H153.595V25.104H151.387ZM172.474 48C172.41 47.488 172.362 47.04 172.33 46.656C172.298 46.272 172.25 45.872 172.186 45.456C171.098 46.544 169.93 47.376 168.682 47.952C167.434 48.496 166.138 48.768 164.794 48.768C162.49 48.768 160.746 48.208 159.562 47.088C158.41 45.936 157.834 44.512 157.834 42.816C157.834 41.344 158.266 40.064 159.13 38.976C159.994 37.888 161.13 37.008 162.538 36.336C163.946 35.632 165.482 35.12 167.146 34.8C168.81 34.448 170.442 34.272 172.042 34.272V31.44C172.042 30.416 171.946 29.472 171.754 28.608C171.562 27.712 171.162 26.992 170.554 26.448C169.978 25.872 169.066 25.584 167.818 25.584C166.986 25.552 166.154 25.712 165.322 26.064C164.49 26.384 163.85 26.928 163.402 27.696C163.658 27.952 163.818 28.256 163.882 28.608C163.978 28.928 164.026 29.232 164.026 29.52C164.026 29.968 163.834 30.48 163.45 31.056C163.066 31.6 162.41 31.856 161.482 31.824C160.714 31.824 160.122 31.568 159.706 31.056C159.322 30.512 159.13 29.888 159.13 29.184C159.13 28.032 159.546 27.008 160.378 26.112C161.242 25.216 162.41 24.512 163.882 24C165.354 23.488 167.002 23.232 168.826 23.232C171.578 23.232 173.626 23.952 174.97 25.392C176.346 26.832 177.034 29.104 177.034 32.208C177.034 33.36 177.034 34.464 177.034 35.52C177.034 36.576 177.018 37.632 176.986 38.688C176.986 39.744 176.986 40.864 176.986 42.048C176.986 42.528 176.97 43.072 176.938 43.68C176.906 44.288 176.858 44.928 176.794 45.6C177.338 45.568 177.898 45.536 178.474 45.504C179.05 45.472 179.594 45.456 180.106 45.456V48H172.474ZM172.042 36.48C171.018 36.544 169.962 36.688 168.874 36.912C167.818 37.136 166.858 37.472 165.994 37.92C165.13 38.368 164.426 38.944 163.882 39.648C163.37 40.352 163.114 41.2 163.114 42.192C163.178 43.28 163.53 44.08 164.17 44.592C164.842 45.104 165.626 45.36 166.522 45.36C167.642 45.36 168.634 45.152 169.498 44.736C170.362 44.288 171.21 43.68 172.042 42.912C172.01 42.56 171.994 42.208 171.994 41.856C171.994 41.472 171.994 41.072 171.994 40.656C171.994 40.368 171.994 39.84 171.994 39.072C172.026 38.272 172.042 37.408 172.042 36.48ZM183.205 45.984C184.165 45.984 184.837 45.76 185.221 45.312C185.605 44.864 185.829 44.24 185.893 43.44C185.989 42.64 186.037 41.712 186.037 40.656V30.672C186.037 30.16 186.037 29.616 186.037 29.04C186.069 28.432 186.133 27.84 186.229 27.264C185.685 27.296 185.109 27.328 184.501 27.36C183.893 27.36 183.333 27.376 182.821 27.408V24.864H184.453C185.797 24.864 186.821 24.72 187.525 24.432C188.229 24.144 188.741 23.84 189.061 23.52H190.789C190.853 23.968 190.901 24.592 190.933 25.392C190.965 26.192 190.997 27.088 191.029 28.08C191.637 27.184 192.341 26.384 193.141 25.68C193.941 24.944 194.805 24.352 195.733 23.904C196.693 23.456 197.685 23.232 198.709 23.232C199.701 23.232 200.549 23.504 201.253 24.048C201.989 24.56 202.357 25.408 202.357 26.592C202.357 26.912 202.261 27.28 202.069 27.696C201.909 28.112 201.621 28.48 201.205 28.8C200.821 29.088 200.293 29.232 199.621 29.232C198.949 29.2 198.357 28.944 197.845 28.464C197.365 27.984 197.141 27.328 197.173 26.496C196.405 26.496 195.637 26.736 194.869 27.216C194.101 27.664 193.381 28.272 192.709 29.04C192.069 29.808 191.525 30.64 191.077 31.536V42.048C191.077 42.624 191.061 43.216 191.029 43.824C191.029 44.4 190.981 44.992 190.885 45.6C191.397 45.568 191.925 45.552 192.469 45.552C193.013 45.52 193.509 45.488 193.957 45.456V48H183.205V45.984ZM214.17 48.768C213.37 48.768 212.57 48.656 211.77 48.432C210.97 48.24 210.218 47.84 209.514 47.232C208.842 46.592 208.314 45.68 207.93 44.496C207.546 43.312 207.354 41.744 207.354 39.792L207.45 26.688H203.898V24C204.762 23.968 205.642 23.648 206.538 23.04C207.434 22.432 208.218 21.616 208.89 20.592C209.562 19.568 210.026 18.464 210.282 17.28H212.538V24H219.93V26.496L212.538 26.592L212.442 39.408C212.442 40.624 212.538 41.696 212.73 42.624C212.954 43.52 213.306 44.224 213.786 44.736C214.298 45.216 214.986 45.456 215.85 45.456C216.586 45.456 217.338 45.232 218.106 44.784C218.906 44.336 219.658 43.6 220.362 42.576L221.994 44.016C221.226 45.136 220.458 46.016 219.69 46.656C218.922 47.296 218.186 47.76 217.482 48.048C216.778 48.368 216.138 48.56 215.562 48.624C214.986 48.72 214.522 48.768 214.17 48.768Z" fill="white"/>
</svg>
