<svg width="222" height="48" viewBox="0 0 222 48" fill="none" xmlns="http://www.w3.org/2000/svg">
<path d="M26.512 12.104C26.16 9.224 25.168 7.016 23.536 5.48C21.904 3.912 19.776 3.112 17.152 3.08C15.488 3.08 13.952 3.448 12.544 4.184C11.136 4.92 9.92 5.96 8.896 7.304C7.872 8.616 7.072 10.184 6.496 12.008C5.952 13.8 5.68 15.768 5.68 17.912C5.68 20.824 6.192 23.416 7.216 25.688C8.24 27.928 9.648 29.672 11.44 30.92C13.264 32.168 15.328 32.792 17.632 32.792C19.68 32.792 21.696 32.312 23.68 31.352C25.696 30.36 27.36 28.968 28.672 27.176L30.256 28.52C28.816 30.504 27.28 32.024 25.648 33.08C24.016 34.136 22.384 34.84 20.752 35.192C19.152 35.576 17.696 35.768 16.384 35.768C13.984 35.768 11.776 35.336 9.76 34.472C7.744 33.608 6 32.408 4.528 30.872C3.088 29.304 1.968 27.496 1.168 25.448C0.4 23.368 0.0160002 21.128 0.0160002 18.728C0.0160002 16.488 0.368 14.296 1.072 12.152C1.776 10.008 2.816 8.072 4.192 6.344C5.568 4.584 7.296 3.192 9.376 2.168C11.488 1.144 13.936 0.631999 16.72 0.631999C18.352 0.631999 19.936 0.855999 21.472 1.304C23.04 1.752 24.544 2.44 25.984 3.368L25.744 0.967998H28.72V12.104H26.512ZM47.599 35C47.535 34.488 47.487 34.04 47.455 33.656C47.423 33.272 47.375 32.872 47.311 32.456C46.223 33.544 45.055 34.376 43.807 34.952C42.559 35.496 41.263 35.768 39.919 35.768C37.615 35.768 35.871 35.208 34.687 34.088C33.535 32.936 32.959 31.512 32.959 29.816C32.959 28.344 33.391 27.064 34.255 25.976C35.119 24.888 36.255 24.008 37.663 23.336C39.071 22.632 40.607 22.12 42.271 21.8C43.935 21.448 45.567 21.272 47.167 21.272V18.44C47.167 17.416 47.071 16.472 46.879 15.608C46.687 14.712 46.287 13.992 45.679 13.448C45.103 12.872 44.191 12.584 42.943 12.584C42.111 12.552 41.279 12.712 40.447 13.064C39.615 13.384 38.975 13.928 38.527 14.696C38.783 14.952 38.943 15.256 39.007 15.608C39.103 15.928 39.151 16.232 39.151 16.52C39.151 16.968 38.959 17.48 38.575 18.056C38.191 18.6 37.535 18.856 36.607 18.824C35.839 18.824 35.247 18.568 34.831 18.056C34.447 17.512 34.255 16.888 34.255 16.184C34.255 15.032 34.671 14.008 35.503 13.112C36.367 12.216 37.535 11.512 39.007 11C40.479 10.488 42.127 10.232 43.951 10.232C46.703 10.232 48.751 10.952 50.095 12.392C51.471 13.832 52.159 16.104 52.159 19.208C52.159 20.36 52.159 21.464 52.159 22.52C52.159 23.576 52.143 24.632 52.111 25.688C52.111 26.744 52.111 27.864 52.111 29.048C52.111 29.528 52.095 30.072 52.063 30.68C52.031 31.288 51.983 31.928 51.919 32.6C52.463 32.568 53.023 32.536 53.599 32.504C54.175 32.472 54.719 32.456 55.231 32.456V35H47.599ZM47.167 23.48C46.143 23.544 45.087 23.688 43.999 23.912C42.943 24.136 41.983 24.472 41.119 24.92C40.255 25.368 39.551 25.944 39.007 26.648C38.495 27.352 38.239 28.2 38.239 29.192C38.303 30.28 38.655 31.08 39.295 31.592C39.967 32.104 40.751 32.36 41.647 32.36C42.767 32.36 43.759 32.152 44.623 31.736C45.487 31.288 46.335 30.68 47.167 29.912C47.135 29.56 47.119 29.208 47.119 28.856C47.119 28.472 47.119 28.072 47.119 27.656C47.119 27.368 47.119 26.84 47.119 26.072C47.151 25.272 47.167 24.408 47.167 23.48ZM58.3296 32.984C59.2896 32.984 59.9616 32.76 60.3456 32.312C60.7296 31.864 60.9536 31.24 61.0176 30.44C61.1136 29.64 61.1616 28.712 61.1616 27.656V17.672C61.1616 17.16 61.1616 16.616 61.1616 16.04C61.1936 15.432 61.2576 14.84 61.3536 14.264C60.8096 14.296 60.2336 14.328 59.6256 14.36C59.0176 14.36 58.4576 14.376 57.9456 14.408V11.864H59.5776C60.9216 11.864 61.9456 11.72 62.6496 11.432C63.3536 11.144 63.8656 10.84 64.1856 10.52H65.9136C65.9776 10.968 66.0256 11.592 66.0576 12.392C66.0896 13.192 66.1216 14.088 66.1536 15.08C66.7616 14.184 67.4656 13.384 68.2656 12.68C69.0656 11.944 69.9296 11.352 70.8576 10.904C71.8176 10.456 72.8096 10.232 73.8336 10.232C74.8256 10.232 75.6736 10.504 76.3776 11.048C77.1136 11.56 77.4816 12.408 77.4816 13.592C77.4816 13.912 77.3856 14.28 77.1936 14.696C77.0336 15.112 76.7456 15.48 76.3296 15.8C75.9456 16.088 75.4176 16.232 74.7456 16.232C74.0736 16.2 73.4816 15.944 72.9696 15.464C72.4896 14.984 72.2656 14.328 72.2976 13.496C71.5296 13.496 70.7616 13.736 69.9936 14.216C69.2256 14.664 68.5056 15.272 67.8336 16.04C67.1936 16.808 66.6496 17.64 66.2016 18.536V29.048C66.2016 29.624 66.1856 30.216 66.1536 30.824C66.1536 31.4 66.1056 31.992 66.0096 32.6C66.5216 32.568 67.0496 32.552 67.5936 32.552C68.1376 32.52 68.6336 32.488 69.0816 32.456V35H58.3296V32.984ZM89.2945 35.768C88.4945 35.768 87.6945 35.656 86.8945 35.432C86.0945 35.24 85.3425 34.84 84.6385 34.232C83.9665 33.592 83.4385 32.68 83.0545 31.496C82.6705 30.312 82.4785 28.744 82.4785 26.792L82.5745 13.688H79.0225V11C79.8865 10.968 80.7665 10.648 81.6625 10.04C82.5585 9.432 83.3425 8.616 84.0145 7.592C84.6865 6.568 85.1505 5.464 85.4065 4.28H87.6625V11H95.0545V13.496L87.6625 13.592L87.5665 26.408C87.5665 27.624 87.6625 28.696 87.8545 29.624C88.0785 30.52 88.4305 31.224 88.9105 31.736C89.4225 32.216 90.1105 32.456 90.9745 32.456C91.7105 32.456 92.4625 32.232 93.2305 31.784C94.0305 31.336 94.7825 30.6 95.4865 29.576L97.1185 31.016C96.3505 32.136 95.5825 33.016 94.8145 33.656C94.0465 34.296 93.3105 34.76 92.6065 35.048C91.9025 35.368 91.2625 35.56 90.6865 35.624C90.1105 35.72 89.6465 35.768 89.2945 35.768ZM103.381 48.008C102.325 48.008 101.413 47.72 100.645 47.144C99.9086 46.6 99.5406 45.8 99.5406 44.744C99.5406 44.072 99.7486 43.464 100.165 42.92C100.613 42.376 101.189 42.104 101.893 42.104C102.661 42.072 103.205 42.312 103.525 42.824C103.877 43.336 104.053 43.864 104.053 44.408C104.053 44.504 104.053 44.6 104.053 44.696C104.053 44.792 104.037 44.904 104.005 45.032C104.101 45.096 104.245 45.112 104.437 45.08C104.789 45.048 105.173 44.856 105.589 44.504C106.005 44.152 106.389 43.656 106.741 43.016C107.125 42.312 107.557 41.336 108.037 40.088C108.517 38.84 109.045 37.4 109.621 35.768L102.085 20.024C101.221 18.232 100.613 16.84 100.261 15.848C99.9406 14.824 99.7326 14.024 99.6366 13.448L97.3326 13.544V11H107.941V12.968H107.845C106.533 13.096 105.813 13.592 105.685 14.456C105.589 15.32 105.893 16.504 106.597 18.008L111.877 29.624C112.485 27.992 113.093 26.216 113.701 24.296C114.341 22.376 114.997 20.408 115.669 18.392C115.893 17.784 116.117 17.144 116.341 16.472C116.597 15.768 116.853 15.128 117.109 14.552C117.397 13.976 117.669 13.576 117.925 13.352L114.805 13.544V11H122.677V12.968C121.557 13.352 120.677 14.056 120.037 15.08C119.429 16.104 118.837 17.4 118.261 18.968L112.261 35.864C111.333 38.52 110.469 40.744 109.669 42.536C108.869 44.36 107.973 45.72 106.981 46.616C106.021 47.544 104.821 48.008 103.381 48.008Z" fill="#EFAB45"/>
<path d="M151.387 12.104C151.035 9.224 150.043 7.016 148.411 5.48C146.779 3.912 144.651 3.112 142.027 3.08C140.363 3.08 138.827 3.448 137.419 4.184C136.011 4.92 134.795 5.96 133.771 7.304C132.747 8.616 131.947 10.184 131.371 12.008C130.827 13.8 130.555 15.768 130.555 17.912C130.555 20.824 131.067 23.416 132.091 25.688C133.115 27.928 134.523 29.672 136.315 30.92C138.139 32.168 140.203 32.792 142.507 32.792C144.555 32.792 146.571 32.312 148.555 31.352C150.571 30.36 152.235 28.968 153.547 27.176L155.131 28.52C153.691 30.504 152.155 32.024 150.523 33.08C148.891 34.136 147.259 34.84 145.627 35.192C144.027 35.576 142.571 35.768 141.259 35.768C138.859 35.768 136.651 35.336 134.635 34.472C132.619 33.608 130.875 32.408 129.403 30.872C127.963 29.304 126.843 27.496 126.043 25.448C125.275 23.368 124.891 21.128 124.891 18.728C124.891 16.488 125.243 14.296 125.947 12.152C126.651 10.008 127.691 8.072 129.067 6.344C130.443 4.584 132.171 3.192 134.251 2.168C136.363 1.144 138.811 0.631999 141.595 0.631999C143.227 0.631999 144.811 0.855999 146.347 1.304C147.915 1.752 149.419 2.44 150.859 3.368L150.619 0.967998H153.595V12.104H151.387ZM172.474 35C172.41 34.488 172.362 34.04 172.33 33.656C172.298 33.272 172.25 32.872 172.186 32.456C171.098 33.544 169.93 34.376 168.682 34.952C167.434 35.496 166.138 35.768 164.794 35.768C162.49 35.768 160.746 35.208 159.562 34.088C158.41 32.936 157.834 31.512 157.834 29.816C157.834 28.344 158.266 27.064 159.13 25.976C159.994 24.888 161.13 24.008 162.538 23.336C163.946 22.632 165.482 22.12 167.146 21.8C168.81 21.448 170.442 21.272 172.042 21.272V18.44C172.042 17.416 171.946 16.472 171.754 15.608C171.562 14.712 171.162 13.992 170.554 13.448C169.978 12.872 169.066 12.584 167.818 12.584C166.986 12.552 166.154 12.712 165.322 13.064C164.49 13.384 163.85 13.928 163.402 14.696C163.658 14.952 163.818 15.256 163.882 15.608C163.978 15.928 164.026 16.232 164.026 16.52C164.026 16.968 163.834 17.48 163.45 18.056C163.066 18.6 162.41 18.856 161.482 18.824C160.714 18.824 160.122 18.568 159.706 18.056C159.322 17.512 159.13 16.888 159.13 16.184C159.13 15.032 159.546 14.008 160.378 13.112C161.242 12.216 162.41 11.512 163.882 11C165.354 10.488 167.002 10.232 168.826 10.232C171.578 10.232 173.626 10.952 174.97 12.392C176.346 13.832 177.034 16.104 177.034 19.208C177.034 20.36 177.034 21.464 177.034 22.52C177.034 23.576 177.018 24.632 176.986 25.688C176.986 26.744 176.986 27.864 176.986 29.048C176.986 29.528 176.97 30.072 176.938 30.68C176.906 31.288 176.858 31.928 176.794 32.6C177.338 32.568 177.898 32.536 178.474 32.504C179.05 32.472 179.594 32.456 180.106 32.456V35H172.474ZM172.042 23.48C171.018 23.544 169.962 23.688 168.874 23.912C167.818 24.136 166.858 24.472 165.994 24.92C165.13 25.368 164.426 25.944 163.882 26.648C163.37 27.352 163.114 28.2 163.114 29.192C163.178 30.28 163.53 31.08 164.17 31.592C164.842 32.104 165.626 32.36 166.522 32.36C167.642 32.36 168.634 32.152 169.498 31.736C170.362 31.288 171.21 30.68 172.042 29.912C172.01 29.56 171.994 29.208 171.994 28.856C171.994 28.472 171.994 28.072 171.994 27.656C171.994 27.368 171.994 26.84 171.994 26.072C172.026 25.272 172.042 24.408 172.042 23.48ZM183.205 32.984C184.165 32.984 184.837 32.76 185.221 32.312C185.605 31.864 185.829 31.24 185.893 30.44C185.989 29.64 186.037 28.712 186.037 27.656V17.672C186.037 17.16 186.037 16.616 186.037 16.04C186.069 15.432 186.133 14.84 186.229 14.264C185.685 14.296 185.109 14.328 184.501 14.36C183.893 14.36 183.333 14.376 182.821 14.408V11.864H184.453C185.797 11.864 186.821 11.72 187.525 11.432C188.229 11.144 188.741 10.84 189.061 10.52H190.789C190.853 10.968 190.901 11.592 190.933 12.392C190.965 13.192 190.997 14.088 191.029 15.08C191.637 14.184 192.341 13.384 193.141 12.68C193.941 11.944 194.805 11.352 195.733 10.904C196.693 10.456 197.685 10.232 198.709 10.232C199.701 10.232 200.549 10.504 201.253 11.048C201.989 11.56 202.357 12.408 202.357 13.592C202.357 13.912 202.261 14.28 202.069 14.696C201.909 15.112 201.621 15.48 201.205 15.8C200.821 16.088 200.293 16.232 199.621 16.232C198.949 16.2 198.357 15.944 197.845 15.464C197.365 14.984 197.141 14.328 197.173 13.496C196.405 13.496 195.637 13.736 194.869 14.216C194.101 14.664 193.381 15.272 192.709 16.04C192.069 16.808 191.525 17.64 191.077 18.536V29.048C191.077 29.624 191.061 30.216 191.029 30.824C191.029 31.4 190.981 31.992 190.885 32.6C191.397 32.568 191.925 32.552 192.469 32.552C193.013 32.52 193.509 32.488 193.957 32.456V35H183.205V32.984ZM214.17 35.768C213.37 35.768 212.57 35.656 211.77 35.432C210.97 35.24 210.218 34.84 209.514 34.232C208.842 33.592 208.314 32.68 207.93 31.496C207.546 30.312 207.354 28.744 207.354 26.792L207.45 13.688H203.898V11C204.762 10.968 205.642 10.648 206.538 10.04C207.434 9.432 208.218 8.616 208.89 7.592C209.562 6.568 210.026 5.464 210.282 4.28H212.538V11H219.93V13.496L212.538 13.592L212.442 26.408C212.442 27.624 212.538 28.696 212.73 29.624C212.954 30.52 213.306 31.224 213.786 31.736C214.298 32.216 214.986 32.456 215.85 32.456C216.586 32.456 217.338 32.232 218.106 31.784C218.906 31.336 219.658 30.6 220.362 29.576L221.994 31.016C221.226 32.136 220.458 33.016 219.69 33.656C218.922 34.296 218.186 34.76 217.482 35.048C216.778 35.368 216.138 35.56 215.562 35.624C214.986 35.72 214.522 35.768 214.17 35.768Z" fill="black"/>
</svg>
