<svg width="23" height="23" viewBox="0 0 23 23" fill="none" xmlns="http://www.w3.org/2000/svg">
<path d="M19 21.5C19.3978 21.5 19.7794 21.342 20.0607 21.0607C20.342 20.7794 20.5 20.3978 20.5 20C20.5 19.6022 20.342 19.2206 20.0607 18.9393C19.7794 18.658 19.3978 18.5 19 18.5C18.6022 18.5 18.2206 18.658 17.9393 18.9393C17.658 19.2206 17.5 19.6022 17.5 20C17.5 20.3978 17.658 20.7794 17.9393 21.0607C18.2206 21.342 18.6022 21.5 19 21.5ZM9 21.5C9.39782 21.5 9.77936 21.342 10.0607 21.0607C10.342 20.7794 10.5 20.3978 10.5 20C10.5 19.6022 10.342 19.2206 10.0607 18.9393C9.77936 18.658 9.39782 18.5 9 18.5C8.60218 18.5 8.22064 18.658 7.93934 18.9393C7.65804 19.2206 7.5 19.6022 7.5 20C7.5 20.3978 7.65804 20.7794 7.93934 21.0607C8.22064 21.342 8.60218 21.5 9 21.5Z" stroke="white" stroke-width="2" stroke-linecap="round" stroke-linejoin="round"/>
<path d="M4.5 3.5H21.5L19.5 14.5M4.5 3.5L6.5 14.5H19.5M4.5 3.5C4.333 2.833 3.5 1.5 1.5 1.5M19.5 14.5H4.73C2.946 14.5 2 15.281 2 16.5C2 17.719 2.946 18.5 4.73 18.5H19" stroke="white" stroke-width="2" stroke-linecap="round" stroke-linejoin="round"/>
</svg>
