<svg width="48" height="49" viewBox="0 0 48 49" fill="none" xmlns="http://www.w3.org/2000/svg">
<path d="M20.3077 6.90158H12.9231C11.226 6.90158 9.54553 7.17261 7.97763 7.69919C6.40973 8.22576 4.9851 8.99758 3.78508 9.97057C2.58506 10.9436 1.63316 12.0987 0.98371 13.3699C0.334265 14.6412 0 16.0037 0 17.3797C0 18.7558 0.334265 20.1183 0.98371 21.3896C1.63316 22.6608 2.58506 23.8159 3.78508 24.7889C4.9851 25.7619 6.40973 26.5337 7.97763 27.0603C9.54553 27.5869 11.226 27.8579 12.9231 27.8579H20.3077V36.8392H3.69231V42.8267H20.3077V48.8142H27.6923V42.8267H35.0769C38.5043 42.8267 41.7914 41.7228 44.2149 39.7577C46.6385 37.7927 48 35.1275 48 32.3486C48 29.5696 46.6385 26.9044 44.2149 24.9394C41.7914 22.9743 38.5043 21.8704 35.0769 21.8704H27.6923V12.8891H44.3077V6.90158H27.6923V0.914062H20.3077V6.90158ZM27.6923 27.8579H35.0769C36.5458 27.8579 37.9545 28.331 38.9932 29.1732C40.0319 30.0153 40.6154 31.1576 40.6154 32.3486C40.6154 33.5395 40.0319 34.6818 38.9932 35.5239C37.9545 36.3661 36.5458 36.8392 35.0769 36.8392H27.6923V27.8579ZM20.3077 21.8704H12.9231C12.1958 21.8704 11.4756 21.7542 10.8036 21.5286C10.1316 21.3029 9.52109 20.9721 9.00679 20.5551C8.4925 20.1381 8.08454 19.6431 7.80621 19.0982C7.52787 18.5534 7.38462 17.9695 7.38462 17.3797C7.38462 16.79 7.52787 16.2061 7.80621 15.6613C8.08454 15.1164 8.4925 14.6214 9.00679 14.2044C9.52109 13.7874 10.1316 13.4566 10.8036 13.2309C11.4756 13.0053 12.1958 12.8891 12.9231 12.8891H20.3077V21.8704Z" fill="#EB8F05"/>
</svg>
