<svg width="30" height="25" viewBox="0 0 30 25" fill="none" xmlns="http://www.w3.org/2000/svg">
<path d="M11.9321 0.5H2.26541C1.83811 0.5 1.42832 0.640476 1.12618 0.890524C0.824038 1.14057 0.654297 1.47971 0.654297 1.83333V9.83333C0.654297 10.187 0.824038 10.5261 1.12618 10.7761C1.42832 11.0262 1.83811 11.1667 2.26541 11.1667H11.9321C12.3594 11.1667 12.7692 11.0262 13.0713 10.7761C13.3734 10.5261 13.5432 10.187 13.5432 9.83333V1.83333C13.5432 1.47971 13.3734 1.14057 13.0713 0.890524C12.7692 0.640476 12.3594 0.5 11.9321 0.5ZM28.0432 0.5H18.3765C17.9492 0.5 17.5394 0.640476 17.2373 0.890524C16.9352 1.14057 16.7654 1.47971 16.7654 1.83333V9.83333C16.7654 10.187 16.9352 10.5261 17.2373 10.7761C17.5394 11.0262 17.9492 11.1667 18.3765 11.1667H28.0432C28.4705 11.1667 28.8803 11.0262 29.1824 10.7761C29.4846 10.5261 29.6543 10.187 29.6543 9.83333V1.83333C29.6543 1.47971 29.4846 1.14057 29.1824 0.890524C28.8803 0.640476 28.4705 0.5 28.0432 0.5ZM11.9321 13.8333H2.26541C1.83811 13.8333 1.42832 13.9738 1.12618 14.2239C0.824038 14.4739 0.654297 14.813 0.654297 15.1667V23.1667C0.654297 23.5203 0.824038 23.8594 1.12618 24.1095C1.42832 24.3595 1.83811 24.5 2.26541 24.5H11.9321C12.3594 24.5 12.7692 24.3595 13.0713 24.1095C13.3734 23.8594 13.5432 23.5203 13.5432 23.1667V15.1667C13.5432 14.813 13.3734 14.4739 13.0713 14.2239C12.7692 13.9738 12.3594 13.8333 11.9321 13.8333ZM23.2099 13.8333C24.4707 13.8333 25.7039 14.1394 26.7566 14.7137C27.8094 15.288 28.6354 16.1053 29.1324 17.0642C29.6295 18.0232 29.7757 19.0818 29.5529 20.1089C29.3302 21.1359 28.7483 22.0863 27.8793 22.8424C27.0103 23.5985 25.8924 24.127 24.6641 24.3624C23.4357 24.5979 22.1509 24.53 20.9687 24.1671C19.7865 23.8042 18.759 23.1623 18.0133 22.3209C17.2676 21.4795 16.8365 20.4755 16.7735 19.4333L16.7654 19.1667L16.7735 18.9C16.8561 17.5334 17.5703 16.2453 18.7683 15.3023C19.9663 14.3592 21.5565 13.8333 23.2099 13.8333Z" fill="white"/>
</svg>
