<svg width="19" height="17" viewBox="0 0 19 17" fill="none" xmlns="http://www.w3.org/2000/svg">
<path d="M1.89017 2.13004L1.89013 2.13007C1.05419 2.9656 0.57971 4.09623 0.570451 5.27758C0.561199 6.45793 1.01609 7.59459 1.83699 8.44265L8.96017 15.5648C8.96018 15.5648 8.96019 15.5648 8.96019 15.5649C9.05395 15.6586 9.1811 15.7112 9.31367 15.7112C9.44622 15.7112 9.57335 15.6586 9.66711 15.5649C9.66713 15.5649 9.66715 15.5648 9.66717 15.5648L16.7899 8.44208C17.6113 7.58928 18.0636 6.44704 18.0485 5.26295C18.0334 4.07742 17.551 2.94574 16.7062 2.11386C15.8614 1.28198 14.7225 0.817111 13.5368 0.820286C12.3513 0.823461 11.2149 1.29435 10.3746 2.13063L1.89017 2.13004ZM1.89017 2.13004C2.73404 1.28642 3.87843 0.8125 5.07167 0.8125C6.2649 0.8125 7.40929 1.28642 8.25317 2.13004L8.25376 2.13063M1.89017 2.13004L8.25376 2.13063M8.25376 2.13063C8.44162 2.31781 8.6813 2.54863 8.97177 2.82233L9.31506 3.1458M8.25376 2.13063L9.31506 3.1458M9.31506 3.1458L9.65798 2.82194M9.31506 3.1458L9.65798 2.82194M9.65798 2.82194C9.94762 2.54839 10.1867 2.31778 10.3744 2.13082L9.65798 2.82194Z" stroke="black"/>
</svg>
