<svg width="28" height="28" viewBox="0 0 28 28" fill="none" xmlns="http://www.w3.org/2000/svg">
<path d="M15.3708 0.664062C16.8708 0.668063 17.6321 0.676063 18.2894 0.694729L18.5481 0.704062C18.8468 0.714729 19.1414 0.728062 19.4974 0.744062C20.9161 0.810729 21.8841 1.03473 22.7334 1.36406C23.6134 1.70273 24.3548 2.1614 25.0961 2.9014C25.7744 3.56771 26.299 4.37403 26.6334 5.26406C26.9628 6.1134 27.1868 7.0814 27.2534 8.5014C27.2694 8.85606 27.2828 9.15073 27.2934 9.45073L27.3014 9.7094C27.3214 10.3654 27.3294 11.1267 27.3321 12.6267L27.3334 13.6214V15.3681C27.3367 16.3406 27.3265 17.3131 27.3028 18.2854L27.2948 18.5441C27.2841 18.8441 27.2708 19.1387 27.2548 19.4934C27.1881 20.9134 26.9614 21.8801 26.6334 22.7307C26.299 23.6208 25.7744 24.4271 25.0961 25.0934C24.4298 25.7717 23.6235 26.2963 22.7334 26.6307C21.8841 26.9601 20.9161 27.1841 19.4974 27.2507L18.5481 27.2907L18.2894 27.2987C17.6321 27.3174 16.8708 27.3267 15.3708 27.3294L14.3761 27.3307H12.6308C11.6578 27.3342 10.6848 27.3239 9.71211 27.3001L9.45344 27.2921C9.13692 27.2801 8.82047 27.2663 8.50411 27.2507C7.08544 27.1841 6.11744 26.9601 5.26677 26.6307C4.37721 26.2961 3.57136 25.7715 2.90544 25.0934C2.2267 24.4272 1.70159 23.6209 1.36677 22.7307C1.03744 21.8814 0.813441 20.9134 0.746774 19.4934L0.706774 18.5441L0.700107 18.2854C0.675529 17.3132 0.664417 16.3406 0.666774 15.3681V12.6267C0.663083 11.6542 0.672862 10.6817 0.696107 9.7094L0.705441 9.45073C0.716107 9.15073 0.729441 8.85606 0.745441 8.5014C0.812107 7.0814 1.03611 6.11473 1.36544 5.26406C1.70103 4.37366 2.22707 3.56731 2.90677 2.9014C3.57231 2.22346 4.37769 1.69883 5.26677 1.36406C6.11744 1.03473 7.08411 0.810729 8.50411 0.744062C8.85877 0.728062 9.15477 0.714729 9.45344 0.704062L9.71211 0.696062C10.6844 0.672373 11.6569 0.66215 12.6294 0.665396L15.3708 0.664062ZM14.0001 7.33073C12.232 7.33073 10.5363 8.03311 9.28606 9.28335C8.03582 10.5336 7.33344 12.2293 7.33344 13.9974C7.33344 15.7655 8.03582 17.4612 9.28606 18.7114C10.5363 19.9617 12.232 20.6641 14.0001 20.6641C15.7682 20.6641 17.4639 19.9617 18.7142 18.7114C19.9644 17.4612 20.6668 15.7655 20.6668 13.9974C20.6668 12.2293 19.9644 10.5336 18.7142 9.28335C17.4639 8.03311 15.7682 7.33073 14.0001 7.33073ZM14.0001 9.9974C14.5254 9.99731 15.0456 10.1007 15.5309 10.3016C16.0162 10.5026 16.4572 10.7971 16.8287 11.1685C17.2002 11.5399 17.4949 11.9808 17.696 12.466C17.8971 12.9513 18.0007 13.4714 18.0008 13.9967C18.0009 14.522 17.8975 15.0422 17.6965 15.5275C17.4956 16.0129 17.201 16.4539 16.8297 16.8254C16.4583 17.1968 16.0174 17.4916 15.5321 17.6927C15.0469 17.8938 14.5267 17.9973 14.0014 17.9974C12.9406 17.9974 11.9232 17.576 11.173 16.8258C10.4229 16.0757 10.0014 15.0583 10.0014 13.9974C10.0014 12.9365 10.4229 11.9191 11.173 11.169C11.9232 10.4188 12.9406 9.9974 14.0014 9.9974M21.0014 5.33073C20.5594 5.33073 20.1355 5.50632 19.8229 5.81888C19.5104 6.13145 19.3348 6.55537 19.3348 6.9974C19.3348 7.43942 19.5104 7.86335 19.8229 8.17591C20.1355 8.48847 20.5594 8.66406 21.0014 8.66406C21.4435 8.66406 21.8674 8.48847 22.18 8.17591C22.4925 7.86335 22.6681 7.43942 22.6681 6.9974C22.6681 6.55537 22.4925 6.13145 22.18 5.81888C21.8674 5.50632 21.4435 5.33073 21.0014 5.33073Z" fill="white"/>
</svg>
