<svg width="28" height="22" viewBox="0 0 28 22" fill="none" xmlns="http://www.w3.org/2000/svg">
<path d="M24.666 5.66927L13.9993 12.3359L3.33268 5.66927V3.0026L13.9993 9.66927L24.666 3.0026M24.666 0.335938H3.33268C1.85268 0.335938 0.666016 1.5226 0.666016 3.0026V19.0026C0.666016 19.7098 0.946967 20.3881 1.44706 20.8882C1.94716 21.3883 2.62544 21.6693 3.33268 21.6693H24.666C25.3733 21.6693 26.0515 21.3883 26.5516 20.8882C27.0517 20.3881 27.3327 19.7098 27.3327 19.0026V3.0026C27.3327 2.29536 27.0517 1.61708 26.5516 1.11699C26.0515 0.616889 25.3733 0.335938 24.666 0.335938Z" fill="white"/>
</svg>
