<svg width="24" height="25" viewBox="0 0 24 25" fill="none" xmlns="http://www.w3.org/2000/svg">
<path d="M17.8746 0.512011C17.8118 0.455011 15.5502 0.534511 13.5822 2.27001C11.6142 4.00401 11.9169 5.99301 11.9613 6.04401C12.0056 6.09501 14.7675 6.17451 16.5306 4.15701C18.2937 2.13951 17.9373 0.570511 17.8746 0.512011ZM23.9928 18.1115C23.9042 17.9675 19.7004 16.2605 20.0918 12.9785C20.4832 9.69651 23.1842 8.79501 23.2266 8.69751C23.2691 8.60001 22.1245 7.51251 20.9115 6.96201C20.0208 6.57426 19.0352 6.35192 18.026 6.31101C17.8266 6.30651 17.1343 6.16851 15.7108 6.48501C14.773 6.69351 12.6591 7.36851 12.0776 7.39551C11.4942 7.42251 9.75877 6.61251 7.89228 6.39801C6.6978 6.21051 5.43132 6.59451 4.52485 6.89001C3.62022 7.18401 1.89958 8.02101 0.695873 10.2455C-0.507836 12.4685 0.121711 15.9905 0.572179 17.0855C1.02265 18.1805 1.72604 19.9715 2.92236 21.2795C3.98576 22.7555 5.39625 23.78 5.98518 24.128C6.57411 24.476 8.23567 24.707 9.38768 24.2285C10.3145 23.7665 11.9871 23.501 12.648 23.5205C13.3071 23.54 14.6068 23.7515 15.9379 24.329C16.9921 24.6245 17.989 24.5015 18.9878 24.1715C19.9866 23.84 21.4322 22.583 23.1196 20.0345C23.7596 18.8495 24.0507 18.2085 23.9928 18.1115Z" fill="black"/>
</svg>
