<svg width="82" height="16" viewBox="0 0 82 16" fill="none" xmlns="http://www.w3.org/2000/svg">
<path d="M40.8829 12.6164L41.7096 9.0744L38.9609 6.69306L42.5816 6.37973L43.9996 3.03906L45.4176 6.37906L49.0376 6.6924L46.2889 9.07373L47.1163 12.6157L43.9996 10.7357L40.8829 12.6164Z" fill="#FFD80B"/>
<path d="M55.8829 12.6164L56.7096 9.0744L53.9609 6.69306L57.5816 6.37973L58.9996 3.03906L60.4176 6.37906L64.0376 6.6924L61.2889 9.07373L62.1163 12.6157L58.9996 10.7357L55.8829 12.6164Z" fill="#D9D9D9"/>
<path d="M70.8829 12.6164L71.7096 9.0744L68.9609 6.69306L72.5816 6.37973L73.9996 3.03906L75.4176 6.37906L79.0376 6.6924L76.2889 9.07373L77.1163 12.6157L73.9996 10.7357L70.8829 12.6164Z" fill="#D9D9D9"/>
<path d="M22.8829 12.6164L23.7096 9.0744L20.9609 6.69306L24.5816 6.37973L25.9996 3.03906L27.4176 6.37906L31.0376 6.6924L28.2889 9.07373L29.1163 12.6157L25.9996 10.7357L22.8829 12.6164Z" fill="#FFD80B"/>
<path d="M4.88294 12.6164L5.7096 9.0744L2.96094 6.69306L6.5816 6.37973L7.9996 3.03906L9.4176 6.37906L13.0376 6.6924L10.2889 9.07373L11.1163 12.6157L7.9996 10.7357L4.88294 12.6164Z" fill="#FFD80B"/>
</svg>
