<svg width="24" height="25" viewBox="0 0 24 25" fill="none" xmlns="http://www.w3.org/2000/svg">
<path fill-rule="evenodd" clip-rule="evenodd" d="M10.999 2.5C9.5614 2.50016 8.14473 2.8447 6.86761 3.50479C5.59049 4.16489 4.49007 5.12132 3.65849 6.29402C2.82691 7.46672 2.28835 8.82158 2.08791 10.2452C1.88747 11.6687 2.03097 13.1196 2.5064 14.4764C2.98183 15.8331 3.77536 17.0562 4.82056 18.0433C5.86576 19.0304 7.13221 19.7527 8.5139 20.1498C9.89558 20.5469 11.3523 20.6073 12.7621 20.3258C14.1719 20.0443 15.4938 19.4292 16.617 18.532L20.292 22.207C20.4806 22.3892 20.7332 22.49 20.9954 22.4877C21.2576 22.4854 21.5084 22.3802 21.6938 22.1948C21.8793 22.0094 21.9844 21.7586 21.9867 21.4964C21.989 21.2342 21.8882 20.9816 21.706 20.793L18.031 17.118C19.089 15.7939 19.7516 14.1979 19.9425 12.5138C20.1334 10.8297 19.8449 9.12586 19.1102 7.5985C18.3754 6.07113 17.2243 4.78228 15.7894 3.88029C14.3544 2.97831 12.6939 2.49985 10.999 2.5ZM4.99903 11.5C4.99903 10.7121 5.15422 9.93185 5.45575 9.2039C5.75728 8.47595 6.19923 7.81451 6.75639 7.25736C7.31354 6.70021 7.97497 6.25825 8.70293 5.95672C9.43088 5.65519 10.2111 5.5 10.999 5.5C11.787 5.5 12.5672 5.65519 13.2951 5.95672C14.0231 6.25825 14.6845 6.70021 15.2417 7.25736C15.7988 7.81451 16.2408 8.47595 16.5423 9.2039C16.8438 9.93185 16.999 10.7121 16.999 11.5C16.999 13.0913 16.3669 14.6174 15.2417 15.7426C14.1164 16.8679 12.5903 17.5 10.999 17.5C9.40773 17.5 7.8816 16.8679 6.75639 15.7426C5.63117 14.6174 4.99903 13.0913 4.99903 11.5Z" fill="white"/>
</svg>
