<svg width="48" height="49" viewBox="0 0 48 49" fill="none" xmlns="http://www.w3.org/2000/svg">
<path fill-rule="evenodd" clip-rule="evenodd" d="M0 6.90001C0 3.58714 2.688 0.898438 6 0.898438H42C45.312 0.898438 48 3.58371 48 6.90001V18.0698C47.9997 24.8954 45.8118 31.5412 41.7576 37.0315C37.7034 42.5219 31.9964 46.5676 25.4743 48.5749C24.514 48.8732 23.486 48.8732 22.5257 48.5749C16.0036 46.5676 10.2966 42.5219 6.24239 37.0315C2.18818 31.5412 0.000331972 24.8954 0 18.0698L0 6.90001ZM24 23.19C26.046 23.19 28.0081 22.377 29.4548 20.9299C30.9015 19.4828 31.7143 17.5202 31.7143 15.4737C31.7143 13.4272 30.9015 11.4645 29.4548 10.0174C28.0081 8.57034 26.046 7.75738 24 7.75738C21.954 7.75738 19.9919 8.57034 18.5452 10.0174C17.0985 11.4645 16.2857 13.4272 16.2857 15.4737C16.2857 17.5202 17.0985 19.4828 18.5452 20.9299C19.9919 22.377 21.954 23.19 24 23.19ZM38.2354 33.1114C36.4672 31.0711 34.2807 29.4352 31.8244 28.315C29.3681 27.1949 26.6995 26.6166 24 26.6195C21.3005 26.6166 18.6319 27.1949 16.1756 28.315C13.7193 29.4352 11.5328 31.0711 9.76457 33.1114C13.1755 38.1388 18.1962 41.8544 24 43.6468C29.8038 41.8544 34.8245 38.1388 38.2354 33.1114Z" fill="#EB8F05"/>
</svg>
