<svg width="24" height="25" viewBox="0 0 24 25" fill="none" xmlns="http://www.w3.org/2000/svg">
<path fill-rule="evenodd" clip-rule="evenodd" d="M5.78042e-09 1.6999C5.78042e-09 1.38167 0.114935 1.07647 0.31952 0.851442C0.524105 0.626418 0.801582 0.5 1.09091 0.5H13.0909C13.3802 0.5 13.6577 0.626418 13.8623 0.851442C14.0669 1.07647 14.1818 1.38167 14.1818 1.6999V7.6994H18.5455C19.2618 7.6994 19.971 7.85458 20.6328 8.15608C21.2946 8.45758 21.8959 8.8995 22.4024 9.45661C22.9089 10.0137 23.3107 10.6751 23.5848 11.403C23.8589 12.1309 24 12.911 24 13.6989V18.4985C24.0001 19.2709 23.7744 20.0229 23.3562 20.6435C22.938 21.264 22.3494 21.7202 21.6775 21.9446C21.4774 22.6705 21.0739 23.3084 20.5247 23.7672C19.9754 24.2259 19.3084 24.4821 18.6189 24.4991C17.9295 24.5161 17.2527 24.2931 16.6853 23.862C16.1179 23.4308 15.6888 22.8135 15.4593 22.0982H8.54182C8.31232 22.8135 7.88323 23.4308 7.31581 23.862C6.74838 24.2931 6.07163 24.5161 5.38214 24.4991C4.69266 24.4821 4.02568 24.2259 3.47643 23.7672C2.92717 23.3084 2.52371 22.6705 2.32364 21.9446C1.65146 21.7204 1.06268 21.2643 0.644254 20.6437C0.225831 20.0232 -4.17215e-05 19.2711 5.78042e-09 18.4985V13.6989H6.54545C6.83478 13.6989 7.11226 13.5725 7.31684 13.3475C7.52143 13.1224 7.63636 12.8172 7.63636 12.499C7.63636 12.1808 7.52143 11.8756 7.31684 11.6505C7.11226 11.4255 6.83478 11.2991 6.54545 11.2991H5.78042e-09V8.8993H4.36364C4.65296 8.8993 4.93044 8.77288 5.13503 8.54785C5.33961 8.32283 5.45455 8.01763 5.45455 7.6994C5.45455 7.38116 5.33961 7.07596 5.13503 6.85094C4.93044 6.62592 4.65296 6.4995 4.36364 6.4995H5.78042e-09V1.6999ZM14.1818 19.6984H15.4593C15.6749 19.027 16.0668 18.441 16.5853 18.0146C17.1038 17.5882 17.7256 17.3405 18.3721 17.3029C19.0186 17.2652 19.6607 17.4394 20.2172 17.8032C20.7737 18.167 21.2197 18.7042 21.4985 19.3468C21.6 19.2355 21.6805 19.1033 21.7353 18.9577C21.7902 18.8121 21.8183 18.6561 21.8182 18.4985V13.6989C21.8182 12.7442 21.4734 11.8286 20.8596 11.1535C20.2459 10.4784 19.4134 10.0992 18.5455 10.0992H14.1818V19.6984ZM6.54545 20.8983C6.54545 20.5801 6.43052 20.2749 6.22593 20.0498C6.02135 19.8248 5.74387 19.6984 5.45455 19.6984C5.16522 19.6984 4.88774 19.8248 4.68316 20.0498C4.47857 20.2749 4.36364 20.5801 4.36364 20.8983C4.36364 21.2165 4.47857 21.5217 4.68316 21.7467C4.88774 21.9718 5.16522 22.0982 5.45455 22.0982C5.74387 22.0982 6.02135 21.9718 6.22593 21.7467C6.43052 21.5217 6.54545 21.2165 6.54545 20.8983ZM17.7742 20.05C17.6726 20.1611 17.592 20.2933 17.5372 20.4389C17.4823 20.5845 17.4542 20.7407 17.4545 20.8983C17.4545 21.1759 17.542 21.4449 17.702 21.6596C17.8621 21.8742 18.0849 22.0211 18.3324 22.0753C18.5799 22.1296 18.8369 22.0877 19.0595 21.9569C19.2821 21.8261 19.4566 21.6144 19.5532 21.3579C19.6499 21.1015 19.6627 20.8161 19.5894 20.5504C19.5162 20.2848 19.3615 20.0552 19.1517 19.901C18.9419 19.7467 18.6899 19.6772 18.4387 19.7044C18.1875 19.7316 17.9527 19.8537 17.7742 20.05Z" fill="white"/>
</svg>
