<svg width="48" height="49" viewBox="0 0 48 49" fill="none" xmlns="http://www.w3.org/2000/svg">
<path fill-rule="evenodd" clip-rule="evenodd" d="M1.15608e-08 2.81668C1.15608e-08 2.18154 0.229869 1.57241 0.63904 1.1233C1.04821 0.674184 1.60316 0.421875 2.18182 0.421875H26.1818C26.7605 0.421875 27.3154 0.674184 27.7246 1.1233C28.1338 1.57241 28.3636 2.18154 28.3636 2.81668V14.7907H37.0909C38.5235 14.7907 39.9421 15.1004 41.2656 15.7022C42.5892 16.3039 43.7918 17.1859 44.8048 18.2978C45.8178 19.4097 46.6214 20.7297 47.1696 22.1825C47.7178 23.6353 48 25.1923 48 26.7648V36.344C48.0002 37.8856 47.5488 39.3865 46.7124 40.625C45.8759 41.8635 44.6989 42.7739 43.3549 43.2219C42.9548 44.6707 42.1478 45.9438 41.0493 46.8594C39.9508 47.775 38.6169 48.2862 37.2379 48.3202C35.8589 48.3542 34.5054 47.9092 33.3706 47.0487C32.2357 46.1881 31.3775 44.9561 30.9185 43.5284H17.0836C16.6246 44.9561 15.7665 46.1881 14.6316 47.0487C13.4968 47.9092 12.1433 48.3542 10.7643 48.3202C9.38531 48.2862 8.05137 47.775 6.95286 46.8594C5.85435 45.9438 5.04743 44.6707 4.64727 43.2219C3.30292 42.7743 2.12535 41.8641 1.28851 40.6256C0.451662 39.3871 -8.3443e-05 37.886 1.15608e-08 36.344V26.7648H13.0909C13.6696 26.7648 14.2245 26.5125 14.6337 26.0633C15.0429 25.6142 15.2727 25.0051 15.2727 24.37C15.2727 23.7348 15.0429 23.1257 14.6337 22.6766C14.2245 22.2275 13.6696 21.9751 13.0909 21.9751H1.15608e-08V17.1855H8.72727C9.30593 17.1855 9.86088 16.9332 10.2701 16.4841C10.6792 16.035 10.9091 15.4259 10.9091 14.7907C10.9091 14.1556 10.6792 13.5465 10.2701 13.0973C9.86088 12.6482 9.30593 12.3959 8.72727 12.3959H1.15608e-08V2.81668ZM28.3636 38.7388H30.9185C31.3499 37.3988 32.1336 36.2293 33.1706 35.3782C34.2076 34.5272 35.4512 34.0328 36.7442 33.9577C38.0372 33.8826 39.3214 34.2301 40.4345 34.9563C41.5475 35.6824 42.4393 36.7546 42.9971 38.0371C43.2 37.815 43.3609 37.5511 43.4706 37.2606C43.5803 36.97 43.6367 36.6585 43.6364 36.344V26.7648C43.6364 24.8593 42.9468 23.0319 41.7192 21.6846C40.4917 20.3373 38.8269 19.5803 37.0909 19.5803H28.3636V38.7388ZM13.0909 41.1336C13.0909 40.4985 12.861 39.8893 12.4519 39.4402C12.0427 38.9911 11.4877 38.7388 10.9091 38.7388C10.3304 38.7388 9.77548 38.9911 9.36631 39.4402C8.95714 39.8893 8.72727 40.4985 8.72727 41.1336C8.72727 41.7687 8.95714 42.3779 9.36631 42.827C9.77548 43.2761 10.3304 43.5284 10.9091 43.5284C11.4877 43.5284 12.0427 43.2761 12.4519 42.827C12.861 42.3779 13.0909 41.7687 13.0909 41.1336ZM35.5484 39.4405C35.3452 39.6623 35.1841 39.9262 35.0743 40.2168C34.9646 40.5074 34.9084 40.819 34.9091 41.1336C34.909 41.6877 35.0839 42.2246 35.4041 42.653C35.7242 43.0814 36.1698 43.3746 36.6648 43.4828C37.1599 43.591 37.6738 43.5075 38.119 43.2464C38.5643 42.9853 38.9132 42.5628 39.1065 42.051C39.2998 41.5391 39.3253 40.9696 39.1789 40.4393C39.0324 39.9091 38.723 39.451 38.3034 39.1431C37.8837 38.8352 37.3798 38.6966 36.8774 38.7508C36.375 38.805 35.9053 39.0488 35.5484 39.4405Z" fill="#EB8F05"/>
</svg>
