<svg width="24" height="25" viewBox="0 0 24 25" fill="none" xmlns="http://www.w3.org/2000/svg">
<path d="M10.1334 11.0337L11.7444 9.55768C12.1849 9.15331 12.4946 8.62653 12.6335 8.04495C12.7725 7.46337 12.7345 6.85352 12.5244 6.29368L11.8374 4.45918C11.5808 3.77431 11.0727 3.21306 10.4166 2.88977C9.76054 2.56647 9.00591 2.50547 8.30644 2.71918C5.73244 3.50668 3.75394 5.89918 4.36294 8.74018C4.76344 10.6092 5.52994 12.9552 6.98194 15.4512C8.43694 17.9532 10.0989 19.8012 11.5239 21.1002C13.6749 23.0577 16.7499 22.5687 18.7284 20.7237C19.2585 20.229 19.5801 19.5509 19.6277 18.8275C19.6754 18.104 19.4455 17.3896 18.9849 16.8297L17.7249 15.2997C17.3449 14.837 16.8352 14.4986 16.2612 14.3281C15.6873 14.1575 15.0755 14.1626 14.5044 14.3427L12.4224 14.9982C11.8845 14.4436 11.4133 13.8279 11.0184 13.1637C10.6375 12.492 10.3403 11.7762 10.1334 11.0322" fill="#CF8517"/>
</svg>
